<?xml version="1.0" standalone="no"?>
<!DOCTYPE svg PUBLIC "-//W3C//DTD SVG 1.1//EN" "http://www.w3.org/Graphics/SVG/1.1/DTD/svg11.dtd" >
<svg xmlns="http://www.w3.org/2000/svg">
<metadata></metadata>
<defs>
<font id="alternate_gothic_fs_no_3Rg" horiz-adv-x="410" >
<font-face units-per-em="1000" ascent="823" descent="-177" />
<missing-glyph horiz-adv-x="153" />
<glyph unicode="&#xfb01;" horiz-adv-x="415" d="M6 414v83h67v47q0 45 7 67.5t24 37.5q31 25 94 25q33 0 100 -7v-87q-54 9 -82 9q-29 0 -39.5 -13.5t-10.5 -51.5v-27h205v-497h-93v414h-112v-414h-93v414h-67z" />
<glyph unicode="&#xfb02;" horiz-adv-x="415" d="M6 414v83h67v47q0 45 7 67.5t24 37.5q29 25 83 25q9 0 45 -3.5t46 -3.5h93v-667h-93v581q-38 8 -68 8q-25 0 -34.5 -14t-9.5 -51v-27h71v-83h-71v-414h-93v414h-67z" />
<glyph unicode="&#xfb03;" horiz-adv-x="669" d="M6 414v83h67v47q0 45 6.5 67.5t24.5 37.5q29 25 86 25q27 0 62 -7v-87q-28 9 -42 9q-25 0 -34.5 -14t-9.5 -51v-27h78v-83h-78v-414h-93v414h-67zM251 414v83h67v47q0 45 6.5 67.5t24.5 37.5q29 25 86 25q27 0 61 -7v-87q-22 9 -41 9q-25 0 -34.5 -14t-9.5 -51v-27h78 v-83h-78v-414h-93v414h-67zM533 0v497h93v-497h-93zM533 570v97h93v-97h-93z" />
<glyph unicode="&#xfb04;" horiz-adv-x="669" d="M6 414v83h67v47q0 45 6.5 67.5t24.5 37.5q29 25 86 25q27 0 62 -7v-87q-28 9 -42 9q-25 0 -34.5 -14t-9.5 -51v-27h78v-83h-78v-414h-93v414h-67zM251 414v83h67v47q0 45 6.5 67.5t24.5 37.5q29 25 86 25q27 0 61 -7v-87q-22 9 -41 9q-25 0 -34.5 -14t-9.5 -51v-27h78 v-83h-78v-414h-93v414h-67zM533 0v667h93v-667h-93z" />
<glyph horiz-adv-x="1000" />
<glyph horiz-adv-x="1000" />
<glyph unicode="&#xd;" horiz-adv-x="1000" />
<glyph unicode=" "  horiz-adv-x="153" />
<glyph unicode="&#x09;" horiz-adv-x="153" />
<glyph unicode="&#xa0;" horiz-adv-x="153" />
<glyph unicode="!" horiz-adv-x="217" d="M53 667h110l-24 -466h-62zM60 0v107h97v-107h-97z" />
<glyph unicode="&#x22;" horiz-adv-x="362" d="M42 667h109l-17 -267h-75zM210 667h109l-17 -267h-75z" />
<glyph unicode="#" horiz-adv-x="441" d="M30 182l14 68h53l30 159h-58l15 68h56l35 190h66l-35 -190h84l36 190h66l-36 -190h55l-12 -68h-56l-29 -159h60l-13 -68h-60l-34 -182h-66l34 182h-84l-34 -182h-66l34 182h-55zM163 250h85l30 159h-85z" />
<glyph unicode="$" d="M27 86l69 65q32 -40 56.5 -55t55.5 -15q32 0 51 21.5t19 58.5q0 41 -27 73q-19 21 -86 69q-73 52 -101 95t-28 104q0 69 38.5 116t102.5 57v62h53v-62q76 -9 135 -74l-69 -68q-39 52 -90 52q-34 0 -53.5 -20.5t-19.5 -55.5q0 -40 26 -68q13 -14 79 -60q80 -55 110 -101.5 t30 -113.5q0 -74 -39 -120t-109 -55v-76h-53v76q-87 11 -150 95z" />
<glyph unicode="%" horiz-adv-x="537" d="M30 433v124q0 117 93 117q92 0 92 -117v-124q0 -116 -92 -116q-93 0 -93 116zM90 423q0 -30 7 -41.5t26 -11.5q18 0 25 11.5t7 41.5v145q0 30 -7 41.5t-25 11.5q-19 0 -26 -11.5t-7 -41.5v-145zM103 0l276 667h55l-276 -667h-55zM322 110v124q0 116 93 116q92 0 92 -116 v-124q0 -117 -92 -117q-93 0 -93 117zM382 99q0 -29 7 -41t26 -12q18 0 25 11.5t7 41.5v145q0 30 -7 41.5t-25 11.5q-19 0 -26 -11.5t-7 -41.5v-145z" />
<glyph unicode="&#x26;" horiz-adv-x="469" d="M33 157q0 86 89 191q-44 91 -44 161q0 73 39 119t100 46q54 0 89 -39t35 -98q0 -58 -40 -115q-15 -22 -67 -86q30 -75 76 -130q22 42 27 103l90 -11q-6 -93 -53 -166q21 -30 68 -42v-100q-66 3 -126 66q-63 -63 -131 -63q-64 0 -108 47.5t-44 116.5zM135 171 q0 -32 17.5 -55.5t42.5 -23.5q30 0 62 33q-54 55 -90 134q-32 -47 -32 -88zM165 539q0 -57 26 -116l8 9q21 25 35 59t14 62q0 25 -10.5 39.5t-28.5 14.5q-20 0 -32 -18.5t-12 -49.5z" />
<glyph unicode="'" horiz-adv-x="197" d="M42 667h112l-17 -267h-78z" />
<glyph unicode="(" horiz-adv-x="262" d="M31 298q0 104 37.5 211t106.5 199l59 -40q-110 -174 -110 -370t110 -370l-59 -40q-69 92 -106.5 199t-37.5 211z" />
<glyph unicode=")" horiz-adv-x="262" d="M28 -72q110 174 110 370t-110 370l58 40q70 -92 107.5 -199t37.5 -211t-37.5 -211t-107.5 -199z" />
<glyph unicode="*" horiz-adv-x="306" d="M37 556l23 69l63 -26l-6 68h73l-6 -68l63 26l23 -69l-66 -16l44 -51l-59 -44l-35 59l-36 -59l-59 44l44 51z" />
<glyph unicode="+" d="M38 302v79h127v122h81v-122h127v-79h-127v-125h-81v125h-127z" />
<glyph unicode="," horiz-adv-x="173" d="M38 0v107h97v-107l-59 -138h-38l44 138h-44z" />
<glyph unicode="-" horiz-adv-x="143" d="M0 212v83h143v-83h-143z" />
<glyph unicode="." horiz-adv-x="173" d="M38 0v107h97v-107h-97z" />
<glyph unicode="/" horiz-adv-x="371" d="M17 -67l247 734h84l-247 -734h-84z" />
<glyph unicode="0" d="M38 212v243q0 105 35 158q44 64 133 64q88 0 132 -64q35 -53 35 -158v-243q0 -105 -35 -158q-44 -64 -132 -64q-89 0 -133 64q-35 53 -35 158zM135 191q0 -55 12 -77q17 -32 59 -32q41 0 58 32q12 22 12 77v285q0 55 -12 78q-17 31 -58 31q-42 0 -59 -31q-12 -23 -12 -78 v-285z" />
<glyph unicode="1" d="M82 510v61q40 17 79 44.5t57 51.5h57v-667h-97v510h-96z" />
<glyph unicode="2" d="M33 0v90q160 209 199.5 276.5t39.5 134.5q0 84 -65 84q-42 0 -61 -39q-9 -19 -9 -73h-97q0 95 28 135q47 69 142 69q76 0 119 -47t43 -130q0 -77 -43 -153q-23 -40 -42 -66.5t-107 -144.5q-12 -15 -34 -46h212v-90h-325z" />
<glyph unicode="3" d="M34 166v24h100v-14q0 -44 18 -69t51 -25q69 0 69 113q0 59 -21 83.5t-74 25.5v93q51 1 68 21q19 22 19 73q0 94 -61 94q-63 0 -63 -88h-97v12q0 75 45 121.5t118 46.5q74 0 114.5 -48t40.5 -136q0 -61 -18 -92.5t-62 -47.5q51 -15 71 -49.5t20 -108.5q0 -99 -45 -151 q-48 -54 -126 -54q-75 0 -121 48.5t-46 127.5z" />
<glyph unicode="4" d="M14 169v104l197 394h106v-408h75v-90h-75v-169h-97v169h-206zM104 259h116v245z" />
<glyph unicode="5" d="M45 169q0 11 1 19h96v-17q0 -89 62 -89q38 0 55 33q12 25 12 117q0 86 -14 118q-15 34 -54 34q-21 0 -36 -11.5t-31 -41.5h-89l7 336h292v-90h-207l-3 -152q45 41 101 41q71 0 104 -55q30 -48 30 -172q0 -76 -7.5 -115.5t-27.5 -71.5q-39 -62 -133 -62q-77 0 -117.5 45.5 t-40.5 133.5z" />
<glyph unicode="6" d="M41 224v238q0 104 40 157q45 58 127 58q72 0 115 -45.5t43 -121.5v-16h-97v16q0 75 -62 75q-39 0 -55 -31q-14 -29 -14 -110v-83q40 53 101 53q135 0 135 -201q0 -223 -167 -223q-81 0 -123 56q-43 57 -43 178zM138 190q0 -108 68 -108q37 0 52.5 28.5t15.5 94.5 q0 63 -15.5 90t-50.5 27q-37 0 -70 -41v-91z" />
<glyph unicode="7" d="M38 577v90h320v-71l-149 -596h-101l147 577h-217z" />
<glyph unicode="8" d="M36 190q0 69 18.5 106t62.5 55q-40 19 -56.5 52t-16.5 95q0 86 41.5 132.5t119.5 46.5t119.5 -46.5t41.5 -132.5q0 -61 -16 -94t-57 -53q44 -18 62.5 -55t18.5 -106q0 -95 -41.5 -147.5t-127.5 -52.5q-85 0 -127 52.5t-42 147.5zM136 192q0 -110 69 -110t69 108 q0 111 -69 111t-69 -109zM141 491q0 -95 64 -95t64 93q0 96 -64 96t-64 -94z" />
<glyph unicode="9" d="M37 454q0 223 167 223q81 0 123 -56q43 -57 43 -178v-238q0 -104 -40 -157q-45 -58 -127 -58q-72 0 -115 45.5t-43 121.5v16h97v-16q0 -75 62 -75q40 0 55 31q14 29 14 110v83q-40 -53 -101 -53q-135 0 -135 201zM137 462q0 -63 15.5 -90t50.5 -27q37 0 70 41v91 q0 108 -68 108q-37 0 -52.5 -28.5t-15.5 -94.5z" />
<glyph unicode=":" horiz-adv-x="173" d="M38 0v107h97v-107h-97zM38 390v107h97v-107h-97z" />
<glyph unicode=";" horiz-adv-x="173" d="M38 0v107h97v-107l-59 -138h-38l44 138h-44zM38 390v107h97v-107h-97z" />
<glyph unicode="&#x3c;" horiz-adv-x="500" d="M33 293v86l433 212v-101l-325 -154l325 -155v-100z" />
<glyph unicode="=" d="M38 217v79h335v-79h-335zM38 384v79h335v-79h-335z" />
<glyph unicode="&#x3e;" horiz-adv-x="500" d="M34 81v101l325 154l-324 155l-1 100l433 -212v-87z" />
<glyph unicode="?" horiz-adv-x="355" d="M20 536q22 72 62 105t105 33q63 0 102 -36t39 -94q0 -29 -10.5 -54t-39.5 -68q-40 -60 -51 -94t-11 -95v-30h-84q-1 11 -1 27q0 75 12.5 120t55.5 121q27 49 27 75q0 19 -12 31t-32 12q-23 0 -39 -18.5t-30 -61.5zM127 0v107h97v-107h-97z" />
<glyph unicode="@" horiz-adv-x="471" d="M52 162v349q0 80 49.5 123t140.5 43q88 0 138 -42.5t50 -118.5v-339h-63l-12 28q-34 -38 -75 -38q-80 0 -80 84v188q0 43 23 67t64 24q31 0 60 -26v21q0 36 -28.5 57.5t-75.5 21.5q-48 0 -79 -26q-17 -13 -23 -30.5t-6 -52.5v-311q0 -56 19 -80q32 -41 94 -41q55 0 99 32 l50 -46q-56 -59 -150 -59q-88 0 -139 41q-26 21 -41 56.5t-15 74.5zM283 273q0 -21 7 -29.5t25 -8.5t25 8.5t7 29.5v151q0 22 -7 30t-25 8t-25 -8.5t-7 -29.5v-151z" />
<glyph unicode="A" horiz-adv-x="451" d="M27 0l128 667h141l135 -667h-106l-28 145h-142l-27 -145h-101zM171 240h109l-55 299z" />
<glyph unicode="B" horiz-adv-x="456" d="M51 0v667h154q94 0 144.5 -44t50.5 -125q0 -115 -110 -149q67 -19 96.5 -56.5t29.5 -103.5q0 -89 -52.5 -139t-145.5 -50h-167zM154 95h52q49 0 76 24.5t27 69.5q0 50 -32 80.5t-86 30.5h-37v-205zM154 395h37q47 0 75.5 25.5t28.5 68.5q0 39 -25 62q-24 21 -77 21h-39 v-177z" />
<glyph unicode="C" horiz-adv-x="444" d="M44 243v187q0 79 8 116.5t31 68.5q45 62 141 62q86 0 133.5 -54.5t47.5 -152.5v-20h-103v14q0 116 -79 116q-41 0 -60 -33q-16 -29 -16 -96v-222q0 -69 11 -99q17 -43 67 -43q80 0 80 130q0 10 -1 17h104v-23q0 -108 -46.5 -164.5t-136.5 -56.5q-104 0 -149 74 q-19 31 -25.5 68t-6.5 111z" />
<glyph unicode="D" horiz-adv-x="450" d="M51 0v667h163q98 0 145.5 -51.5t47.5 -157.5v-249q0 -106 -47.5 -157.5t-145.5 -51.5h-163zM154 95h51q55 0 77 32t22 110v193q0 79 -22 110.5t-77 31.5h-51v-477z" />
<glyph unicode="E" horiz-adv-x="373" d="M51 0v667h302v-95h-199v-176h147v-95h-147v-206h199v-95h-302z" />
<glyph unicode="F" horiz-adv-x="367" d="M51 0v667h305v-95h-202v-180h150v-95h-150v-297h-103z" />
<glyph unicode="G" horiz-adv-x="448" d="M44 246v184q0 79 8 116t31 69q45 62 141 62q111 0 157 -89q24 -47 24 -138h-103q0 68 -19 99t-60 31q-43 0 -61 -34q-15 -28 -15 -96v-204q0 -75 11 -109q18 -50 70 -50q41 0 59 31t18 101v27h-85v85h188v-331h-53l-19 57q-47 -67 -125 -67q-46 0 -82 20.5t-56 57.5 q-29 57 -29 178z" />
<glyph unicode="H" horiz-adv-x="454" d="M51 0v667h103v-278h147v278h103v-667h-103v294h-147v-294h-103z" />
<glyph unicode="I" horiz-adv-x="205" d="M51 0v667h103v-667h-103z" />
<glyph unicode="J" horiz-adv-x="259" d="M13 0v97h24q38 0 53 16.5t15 57.5v496h103v-504q0 -52 -6 -79t-23 -47q-30 -37 -104 -37h-62z" />
<glyph unicode="K" horiz-adv-x="444" d="M51 0v667h103v-276l149 276h111l-141 -242l161 -425h-113l-112 315l-55 -93v-222h-103z" />
<glyph unicode="L" horiz-adv-x="372" d="M51 0v667h103v-572h205v-95h-308z" />
<glyph unicode="M" horiz-adv-x="587" d="M51 0v667h151l92 -419l93 419h149v-667h-98v491l-116 -491h-58l-115 491v-491h-98z" />
<glyph unicode="N" horiz-adv-x="471" d="M51 0v667h104l168 -415v415h98v-667h-92l-180 444v-444h-98z" />
<glyph unicode="O" horiz-adv-x="452" d="M44 212v243q0 222 182 222t182 -222v-243q0 -105 -38 -158q-47 -64 -144 -64t-144 64q-38 53 -38 158zM147 214q0 -65 13 -91q20 -36 66 -36t66 36q13 24 13 91v239q0 66 -13 91q-20 36 -66 36t-66 -36q-13 -26 -13 -91v-239z" />
<glyph unicode="P" horiz-adv-x="435" d="M51 0v667h171q101 0 147 -49t46 -150q0 -100 -46.5 -149t-146.5 -49h-68v-270h-103zM154 365h45q62 0 85.5 22.5t23.5 81.5t-23.5 81t-85.5 22h-45v-207z" />
<glyph unicode="Q" horiz-adv-x="452" d="M44 212v243q0 222 182 222t182 -222v-243q0 -91 -25 -137q16 -25 55 -28v-96q-90 0 -125 56q-44 -17 -89 -17q-95 0 -142 64q-38 53 -38 158zM147 214q0 -65 13 -91q20 -36 66 -36t66 36q13 24 13 91v239q0 66 -13 91q-20 36 -66 36t-66 -36q-13 -26 -13 -91v-239z" />
<glyph unicode="R" horiz-adv-x="439" d="M51 0v667h161q86 0 132 -40q60 -51 60 -151q0 -126 -90 -173l98 -303h-108l-88 274h-62v-274h-103zM154 369h38q59 0 80 21q25 25 25 80q0 56 -25 81q-21 21 -80 21h-38v-203z" />
<glyph unicode="S" horiz-adv-x="426" d="M20 178l99 29q20 -120 103 -120q34 0 55 21t21 55q0 31 -20 57t-79 73q-69 55 -85.5 70t-36.5 39q-37 48 -37 111q0 72 49 118t125 46q144 0 187 -167l-99 -29q-24 99 -88 99q-29 0 -48 -19.5t-19 -48.5q0 -37 28 -67q17 -18 88 -73q71 -56 99 -90q43 -53 43 -122 q0 -76 -50.5 -123t-132.5 -47q-171 0 -202 188z" />
<glyph unicode="T" horiz-adv-x="375" d="M7 572v95h362v-95h-130v-572h-103v572h-129z" />
<glyph unicode="U" horiz-adv-x="454" d="M51 215v452h103v-469q0 -58 17.5 -84.5t56.5 -26.5t56 26t17 85v469h103v-452q0 -113 -38 -165q-46 -60 -139 -60t-138 60q-38 52 -38 165z" />
<glyph unicode="V" horiz-adv-x="433" d="M17 667h107l100 -507l88 507h105l-129 -667h-128z" />
<glyph unicode="W" horiz-adv-x="637" d="M20 667h100l76 -430l80 430h89l88 -430l67 430h97l-113 -667h-96l-86 452l-81 -452h-96z" />
<glyph unicode="X" horiz-adv-x="450" d="M13 0l149 348l-143 319h114l89 -214l83 214h112l-137 -319l156 -348h-114l-102 243l-94 -243h-113z" />
<glyph unicode="Y" horiz-adv-x="440" d="M17 667h114l89 -282l92 282h112l-154 -407v-260h-103v260z" />
<glyph unicode="Z" horiz-adv-x="389" d="M20 0v97l233 475h-211v95h324v-95l-232 -477h235v-95h-349z" />
<glyph unicode="[" horiz-adv-x="262" d="M49 -95v762h173v-87h-78v-588h78v-87h-173z" />
<glyph unicode="\" horiz-adv-x="371" d="M23 667h84l247 -734h-84z" />
<glyph unicode="]" horiz-adv-x="262" d="M39 -8h79v588h-79v87h174v-762h-174v87z" />
<glyph unicode="^" horiz-adv-x="500" d="M26 366l167 303h114l167 -303h-93l-132 234l-130 -234h-93z" />
<glyph unicode="_" horiz-adv-x="500" d="M0 -66h500v-64h-500v64z" />
<glyph unicode="`" horiz-adv-x="500" d="M149 667h97l45 -89h-70z" />
<glyph unicode="a" horiz-adv-x="396" d="M37 125q0 47 19 78.5t62 58.5q30 19 132 63v26q0 38 -11.5 54.5t-37.5 16.5t-39 -16.5t-16 -54.5h-98q6 74 48.5 113.5t117.5 39.5q70 0 102 -38q16 -18 21.5 -40.5t5.5 -69.5v-221q0 -90 11 -135h-96q-8 22 -8 58q-34 -37 -58 -51t-54 -14q-47 0 -74 35t-27 97zM135 131 q0 -25 13.5 -40.5t33.5 -15.5q40 0 68 45v136q-62 -33 -88.5 -62t-26.5 -63z" />
<glyph unicode="b" horiz-adv-x="387" d="M43 0v667h93v-219q59 56 110 56q57 0 80 -51q20 -42 20 -145v-119q0 -103 -20 -145q-23 -51 -80 -51q-51 0 -110 56v-49h-93zM136 100q37 -25 65 -25q32 0 43 26q9 19 9 82v131q0 63 -9 82q-11 26 -43 26q-30 0 -65 -25v-297z" />
<glyph unicode="c" horiz-adv-x="377" d="M40 176v144q0 93 31 135q38 52 125 52q78 0 118 -45q35 -38 35 -119v-18h-93v13q0 84 -60 84q-37 0 -51 -27q-12 -23 -12 -87v-120q0 -63 12 -86q14 -27 51 -27q60 0 60 87v14h93v-19q0 -83 -35 -121q-41 -46 -118 -46q-87 0 -125 52q-31 42 -31 134z" />
<glyph unicode="d" horiz-adv-x="387" d="M40 189v119q0 102 20 145q23 51 80 51q51 0 110 -56v219h93v-667h-93v49q-60 -56 -110 -56q-57 0 -80 51q-20 42 -20 145zM133 183q0 -63 9 -82q11 -26 43 -26q30 0 65 25v297q-37 25 -65 25q-32 0 -43 -26q-9 -19 -9 -82v-131z" />
<glyph unicode="e" horiz-adv-x="389" d="M40 177v148q0 60 8.5 89.5t31.5 51.5q41 41 113 41q77 0 117 -46q21 -24 29.5 -56.5t8.5 -89.5v-82h-215v-44q0 -64 12 -87q14 -27 51 -27q44 0 56 42q4 15 4 55h93q-1 -85 -19 -115q-39 -67 -134 -67q-87 0 -125 52q-31 44 -31 135zM133 315h122v27q0 44 -14.5 63.5 t-46.5 19.5t-46.5 -19.5t-14.5 -63.5v-27z" />
<glyph unicode="f" horiz-adv-x="245" d="M6 414v83h67v47q0 45 6.5 67.5t24.5 37.5q29 25 86 25q27 0 62 -7v-87q-28 9 -42 9q-25 0 -34.5 -14t-9.5 -51v-27h78v-83h-78v-414h-93v414h-67z" />
<glyph unicode="g" horiz-adv-x="404" d="M23 -87q0 29 18.5 48.5t59.5 33.5q-58 23 -58 65q0 28 17.5 45.5t59.5 31.5q-44 23 -63.5 65t-19.5 112q0 93 39 141.5t114 48.5q42 0 70 -14.5t51 -48.5q18 64 87 61v-99q-14 13 -32 13q-21 0 -36 -19q10 -37 10 -83q0 -93 -38.5 -142t-111.5 -49q-15 0 -36 4 q-22 -11 -22 -29q0 -16 20 -22q13 -3 77 -6q82 -5 117 -27q47 -30 47 -96q0 -64 -48 -94t-150 -30q-172 0 -172 90zM118 -58q0 -22 21.5 -31.5t70.5 -9.5q95 0 95 43q0 14 -9 21.5t-30 11.5q-4 1 -53.5 4t-69.5 6q-25 -25 -25 -45zM132 286q0 -81 56 -81q57 0 57 81v55 q0 81 -56 81q-57 0 -57 -81v-55z" />
<glyph unicode="h" horiz-adv-x="385" d="M43 0v667h93v-234q61 71 124 71q81 0 81 -116v-388h-93v364q0 33 -8 45.5t-28 12.5q-40 0 -76 -50v-372h-93z" />
<glyph unicode="i" horiz-adv-x="180" d="M43 0v497h93v-497h-93zM43 570v97h93v-97h-93z" />
<glyph unicode="j" horiz-adv-x="193" d="M-24 -72q21 -3 29 -3q28 0 40 20t12 68v484h93v-504q0 -50 -6 -74.5t-22 -43.5q-36 -42 -106 -42q-20 0 -40 5v90zM57 570v97h93v-97h-93z" />
<glyph unicode="k" horiz-adv-x="374" d="M43 0v667h93v-369l112 199h106l-101 -162l110 -335h-104l-70 232l-53 -84v-148h-93z" />
<glyph unicode="l" horiz-adv-x="180" d="M43 0v667h93v-667h-93z" />
<glyph unicode="m" horiz-adv-x="589" d="M43 0v497h93v-64q61 71 124 71q64 0 78 -71q62 71 126 71q82 0 82 -116v-388h-93v364q0 33 -8 45.5t-28 12.5q-40 0 -76 -50v-372h-93v364q0 33 -8 45.5t-28 12.5q-40 0 -76 -50v-372h-93z" />
<glyph unicode="n" horiz-adv-x="385" d="M43 0v497h93v-64q61 71 124 71q81 0 81 -116v-388h-93v364q0 33 -8 45.5t-28 12.5q-40 0 -76 -50v-372h-93z" />
<glyph unicode="o" horiz-adv-x="385" d="M40 172v153q0 59 8.5 89.5t30.5 52.5q40 40 114 40q71 0 113 -40q22 -22 30.5 -52.5t8.5 -89.5v-153q0 -59 -8.5 -89t-30.5 -52q-41 -41 -113 -41q-73 0 -114 41q-22 22 -30.5 52.5t-8.5 88.5zM133 166q0 -91 59 -91q31 0 45.5 22t14.5 69v165q0 91 -59 91 q-31 0 -45.5 -22t-14.5 -69v-165z" />
<glyph unicode="p" horiz-adv-x="387" d="M43 -170v667h93v-49q60 56 110 56q57 0 80 -51q20 -42 20 -145v-119q0 -103 -20 -145q-23 -51 -80 -51q-51 0 -110 56v-219h-93zM136 100q37 -25 65 -25q32 0 43 26q9 19 9 82v131q0 63 -9 82q-11 26 -43 26q-30 0 -65 -25v-297z" />
<glyph unicode="q" horiz-adv-x="387" d="M40 189v119q0 102 20 145q23 51 80 51q51 0 110 -56v49h93v-667h-93v219q-59 -56 -110 -56q-57 0 -80 51q-20 42 -20 145zM133 183q0 -63 9 -82q11 -26 43 -26q30 0 65 25v297q-35 25 -65 25q-32 0 -43 -26q-9 -19 -9 -82v-131z" />
<glyph unicode="r" horiz-adv-x="255" d="M43 0v497h93v-86q19 49 47 71t72 22v-108q-23 9 -45 9q-38 0 -58 -26q-16 -21 -16 -80v-299h-93z" />
<glyph unicode="s" horiz-adv-x="362" d="M20 130l87 30q15 -46 34.5 -65.5t48.5 -19.5q23 0 38 14t15 36q0 21 -15 37t-55 38q-82 46 -109 74q-36 38 -36 94q0 60 41 99.5t104 39.5q115 0 161 -120l-85 -37q-14 39 -32 55.5t-45 16.5q-22 0 -35.5 -12t-13.5 -32t15.5 -35t68.5 -44q74 -41 101 -68q35 -37 35 -94 q0 -66 -42.5 -106.5t-110.5 -40.5q-64 0 -105 34t-65 106z" />
<glyph unicode="t" horiz-adv-x="273" d="M11 414v83h72v136h93v-136h85v-83h-85v-265q0 -38 13.5 -54.5t44.5 -16.5q12 0 36 6v-84q-36 -7 -63 -7q-71 0 -101 37q-13 16 -18 39t-5 70v275h-72z" />
<glyph unicode="u" horiz-adv-x="385" d="M43 109v388h93v-364q0 -33 8 -45.5t28 -12.5q40 0 76 50v372h93v-497h-93v64q-61 -71 -124 -71q-81 0 -81 116z" />
<glyph unicode="v" horiz-adv-x="351" d="M10 497h99l71 -316l63 316h98l-111 -497h-98z" />
<glyph unicode="w" horiz-adv-x="540" d="M13 497h95l60 -310l61 310h85l63 -310l56 310h94l-105 -497h-88l-64 305l-63 -305h-88z" />
<glyph unicode="x" horiz-adv-x="368" d="M13 0l115 260l-107 237h101l61 -153l58 153h100l-103 -237l117 -260h-102l-71 176l-70 -176h-99z" />
<glyph unicode="y" horiz-adv-x="354" d="M10 497h98l73 -339l67 339h96l-108 -476q-28 -123 -67.5 -160.5t-143.5 -37.5v96q6 -1 15 -1q39 0 62.5 22.5t23.5 59.5q0 15 -7 43z" />
<glyph unicode="z" horiz-adv-x="341" d="M23 0v93l188 314h-172v90h279v-93l-188 -314h188v-90h-295z" />
<glyph unicode="{" horiz-adv-x="293" d="M22 248v79q31 8 44 29t13 61v113q0 74 36 107q21 20 48 25t108 5v-92q-58 -1 -77 -18.5t-19 -69.5v-86q0 -48 -12 -73t-44 -42q31 -18 43.5 -44t12.5 -74v-84q0 -55 19 -73t77 -19v-86q-85 0 -111 5.5t-47 26.5q-34 34 -34 115v101q0 44 -13 65t-44 29z" />
<glyph unicode="|" horiz-adv-x="500" d="M199 -167v834h102v-834h-102z" />
<glyph unicode="}" horiz-adv-x="293" d="M23 -8q58 1 77 19t19 73v84q0 48 12.5 74t43.5 44q-32 17 -44 42t-12 73v86q0 52 -19 69.5t-77 18.5v92q81 0 108 -5t48 -25q36 -33 36 -107v-113q0 -40 13 -61t44 -29v-79q-31 -8 -44 -29t-13 -65v-101q0 -81 -34 -115q-21 -21 -47 -26.5t-111 -5.5v86z" />
<glyph unicode="~" horiz-adv-x="667" d="M94 613q52 120 140 120q37 0 115 -37q64 -31 87 -31q48 0 86 71l52 -42q-51 -119 -149 -119q-19 0 -39 7.5t-77 34.5q-53 25 -79 25q-45 0 -84 -71z" />
<glyph unicode="&#xa1;" horiz-adv-x="217" d="M53 -170l24 465h62l24 -465h-110zM60 390v107h97v-107h-97z" />
<glyph unicode="&#xa2;" d="M50 261v144q0 67 14 104t47 59q28 18 68 22v100h53v-100q40 -4 71 -25q30 -20 43 -52t13 -85v-18h-94q1 6 1 13q0 84 -60 84q-37 0 -51 -27q-12 -23 -12 -87v-120q0 -63 12 -86q14 -27 51 -27q60 0 60 87q0 8 -1 14h94v-19q0 -78 -29.5 -116.5t-97.5 -48.5v-108h-53v108 q-71 11 -100 52t-29 132z" />
<glyph unicode="&#xa3;" d="M12 54q40 73 96 79q25 36 25 73q0 33 -25 86h-85v61h63q-25 70 -32.5 98.5t-7.5 59.5q0 77 45 121.5t121 44.5q49 0 86.5 -21.5t56.5 -60.5q19 -38 19 -109h-96q-2 52 -17.5 75.5t-49.5 23.5q-30 0 -48 -19.5t-18 -51.5q0 -31 30 -119l8 -24l6 -18h116v-61h-96 q16 -47 16 -84q0 -45 -31 -91q57 -21 69 -21q20 0 32 21.5t12 57.5h88q0 -85 -30.5 -133.5t-83.5 -48.5q-34 0 -101 32q-27 13 -40 13q-30 0 -65 -48z" />
<glyph unicode="&#xa4;" horiz-adv-x="416" d="M38 223l44 44q-17 34 -17 66q0 37 19 72l-42 42l58 58l43 -44q35 17 66 17q33 0 67 -17l47 47l56 -56l-46 -46q20 -33 20 -72q0 -35 -16 -66l42 -43l-57 -57l-41 41q-34 -19 -72 -19q-35 0 -72 19l-43 -42zM132 334q0 -32 23 -54.5t54 -22.5t54 22.5t23 52.5q0 32 -23 55 t-55 23q-31 0 -53.5 -22.5t-22.5 -53.5z" />
<glyph unicode="&#xa5;" d="M18 667h102l84 -283l88 283h99l-117 -321h76v-61h-98v-285h-98v285h-99v61h77z" />
<glyph unicode="&#xa6;" horiz-adv-x="500" d="M199 153h102v-320h-102v320zM199 327v340h102v-340h-102z" />
<glyph unicode="&#xa7;" d="M33 350q0 75 100 109l-10 13q-28 36 -36.5 53t-8.5 41q0 49 36 80t93 31q60 0 96 -35t36 -94q0 -17 -2 -31h-91v22q0 55 -40 55q-14 0 -23.5 -8.5t-9.5 -21.5q0 -11 25 -41l140 -161q39 -45 39 -93q0 -85 -87 -118l11 -12q30 -33 30 -81q0 -52 -35 -83.5t-93 -31.5 q-64 0 -100 35.5t-36 97.5q0 10 2 20h92q0 -3 -0.5 -6t-1 -5t-0.5 -4v-3q0 -23 12 -36.5t32 -13.5q15 0 24 9t9 24t-18 36l-119 132q-39 44 -52.5 68.5t-13.5 52.5zM128 358q0 -23 20 -45l96 -106q38 17 38 55q0 24 -27 55l-82 92q-45 -21 -45 -51z" />
<glyph unicode="&#xa8;" horiz-adv-x="500" d="M130 578v89h87v-89h-87zM283 578v89h87v-89h-87z" />
<glyph unicode="&#xa9;" horiz-adv-x="778" d="M44 333q0 145 102 245.5t248 100.5q139 0 239.5 -102t100.5 -244q0 -143 -101 -244t-244 -101t-244 101t-101 244zM104 333q0 -119 84 -204t201 -85q118 0 201.5 85t83.5 205q0 118 -83 203.5t-198 85.5q-121 0 -205 -84t-84 -206zM278 282v110q0 47 5 69.5t19 41.5 q28 38 86 38q110 0 110 -141h-67q-2 42 -8 53q-11 24 -36 24q-22 0 -31.5 -16.5t-9.5 -56.5v-130q0 -46 9.5 -63.5t32.5 -17.5q25 0 34 19t10 68h68v-17q0 -65 -28.5 -99.5t-82.5 -34.5q-64 0 -92 45q-19 32 -19 108z" />
<glyph unicode="&#xaa;" horiz-adv-x="263" d="M27 344q0 53 53 84q14 9 79 36v13q0 22 -6 30.5t-20 8.5q-28 0 -31 -42h-69q8 97 108 97q43 0 66 -24q18 -19 18 -67v-130q0 -56 8 -83h-68q-3 9 -6 29q-33 -33 -66 -33q-31 0 -48.5 21.5t-17.5 59.5zM96 348q0 -13 7 -21.5t18 -8.5q22 0 38 24v73q-63 -33 -63 -67z" />
<glyph unicode="&#xab;" horiz-adv-x="309" d="M33 178v144l103 85v-120l-38 -37l38 -37v-120zM173 178v144l103 85v-120l-38 -37l38 -37v-120z" />
<glyph unicode="&#xac;" horiz-adv-x="500" d="M33 193v89h433v-282h-99v193h-334z" />
<glyph unicode="&#xad;" horiz-adv-x="143" d="M0 212v83h143v-83h-143z" />
<glyph unicode="&#xae;" horiz-adv-x="778" d="M44 333q0 145 101.5 245.5t248.5 100.5q139 0 239.5 -102t100.5 -244q0 -143 -101 -244t-244 -101t-244 101t-101 244zM104 333q0 -119 84 -204t201 -85q118 0 201.5 85t83.5 204t-83 204.5t-198 85.5q-121 0 -205 -84t-84 -206zM288 132v400h99q57 0 87 -30t30 -86 q0 -77 -53 -104l59 -180h-71l-52 161h-31v-161h-68zM356 356h19q33 0 46 12.5t13 44.5q0 31 -13 43.5t-46 12.5h-19v-113z" />
<glyph unicode="&#xaf;" horiz-adv-x="500" d="M148 589v67h205v-67h-205z" />
<glyph unicode="&#xb0;" horiz-adv-x="380" d="M47 529q0 60 42 102.5t102 42.5t101.5 -42.5t41.5 -103.5q0 -58 -42 -100t-101 -42q-60 0 -102 42t-42 101zM114 530q0 -31 22.5 -54t53.5 -23t54 22.5t23 52.5q0 32 -22.5 55t-55.5 23q-30 0 -52.5 -22.5t-22.5 -53.5z" />
<glyph unicode="&#xb1;" d="M38 48v79h335v-79h-335zM38 299v79h127v122h81v-122h127v-79h-127v-126h-81v126h-127z" />
<glyph unicode="&#xb2;" horiz-adv-x="277" d="M25 266v58q100 120 126.5 161.5t26.5 79.5q0 47 -38 47q-42 0 -42 -52v-15h-69v17q0 52 30 81.5t83 29.5q50 0 78.5 -29t28.5 -79q0 -48 -28 -92q-20 -33 -96 -125q-5 -8 -18 -22h133v-60h-215z" />
<glyph unicode="&#xb3;" horiz-adv-x="277" d="M25 371q0 9 1 14h70v-11q0 -53 41 -53t41 63q0 35 -13 48t-48 14v62q35 1 46.5 11t11.5 41q0 52 -37 52q-20 0 -29 -12t-9 -40h-69v10q0 46 30 74.5t78 28.5q49 0 76 -29.5t27 -82.5q0 -63 -45 -83q52 -15 52 -93q0 -59 -29.5 -92t-83.5 -33q-51 0 -81 30t-30 81z" />
<glyph unicode="&#xb4;" horiz-adv-x="500" d="M202 578l46 89h96l-72 -89h-70z" />
<glyph unicode="&#xb5;" horiz-adv-x="385" d="M43 -170v667h93v-353q0 -41 10.5 -58.5t36.5 -17.5q37 0 65 62v367h93v-497h-93v57q-26 -64 -68 -64q-28 0 -44 31v-194h-93z" />
<glyph unicode="&#xb6;" horiz-adv-x="418" d="M40 492q0 77 47.5 126t121.5 49h172v-30h-40v-737h-48v737h-55v-737h-49v420q-63 2 -106 52t-43 120z" />
<glyph unicode="&#xb7;" horiz-adv-x="173" d="M38 200v107h97v-107h-97z" />
<glyph unicode="&#xb8;" horiz-adv-x="500" d="M210 -46h80v-68l-22 -56h-47l17 56h-28v68z" />
<glyph unicode="&#xb9;" horiz-adv-x="277" d="M56 568v42q63 25 89 57h42v-400h-69v301h-62z" />
<glyph unicode="&#xba;" horiz-adv-x="256" d="M29 371v91q0 63 26 86q27 25 73 25q45 0 72 -25q26 -23 26 -86v-91q0 -62 -26 -85q-27 -25 -72 -25q-46 0 -73 25q-26 23 -26 85zM95 368q0 -50 32 -50q33 0 33 50v97q0 51 -32 51q-33 0 -33 -51v-97z" />
<glyph unicode="&#xbb;" horiz-adv-x="309" d="M33 93v120l38 37l-38 37v120l103 -85v-144zM173 93v120l38 37l-38 37v120l103 -85v-144z" />
<glyph unicode="&#xbc;" horiz-adv-x="673" d="M56 568v42q63 25 89 57h42v-400h-69v301h-62zM183 -33l250 733h57l-255 -733h-52zM409 100v66l128 234h73v-240h48v-60h-48v-100h-69v100h-132zM471 158h72v145z" />
<glyph unicode="&#xbd;" horiz-adv-x="673" d="M56 568v42q63 25 89 57h42v-400h-69v301h-62zM183 -33l250 733h57l-255 -733h-52zM421 0v58q99 118 126 160.5t27 80.5q0 46 -38 46q-42 0 -42 -51v-15h-69v17q0 52 30 81t83 29q50 0 78.5 -29t28.5 -79q0 -47 -28 -91q-20 -33 -96 -125q-5 -8 -18 -22h133v-60h-215z" />
<glyph unicode="&#xbe;" horiz-adv-x="673" d="M25 371q0 9 1 14h70v-11q0 -53 41 -53t41 63q0 35 -13 48t-48 14v62q35 1 46.5 11t11.5 41q0 52 -37 52q-20 0 -29 -12t-9 -40h-69v10q0 46 30 74.5t78 28.5q49 0 76 -29.5t27 -82.5q0 -63 -45 -83q52 -15 52 -93q0 -59 -29.5 -92t-83.5 -33q-51 0 -81 30t-30 81z M184 -33l250 733h56l-254 -733h-52zM410 100v66l127 234h73v-240h49v-60h-49v-100h-69v100h-131zM472 158h71v145z" />
<glyph unicode="&#xbf;" horiz-adv-x="355" d="M27 -47q0 28 10.5 53t39.5 69q44 66 53.5 99.5t8.5 119.5h85v-27q0 -75 -12.5 -120t-55.5 -121q-27 -49 -27 -75q0 -19 12 -31t32 -12q23 0 39 18.5t30 61.5l93 -27q-22 -72 -62 -105t-105 -33q-63 0 -102 36t-39 94zM131 390v107h97v-107h-97z" />
<glyph unicode="&#xc0;" horiz-adv-x="451" d="M27 0l128 667h141l135 -667h-106l-28 145h-142l-27 -145h-101zM121 809h97l45 -89h-70zM171 240h109l-55 299z" />
<glyph unicode="&#xc1;" horiz-adv-x="451" d="M27 0l128 667h141l135 -667h-106l-28 145h-142l-27 -145h-101zM171 240h109l-55 299zM195 720l46 89h96l-72 -89h-70z" />
<glyph unicode="&#xc2;" horiz-adv-x="451" d="M27 0l128 667h141l135 -667h-106l-28 145h-142l-27 -145h-101zM114 720l63 89h104l63 -89h-84l-31 34l-31 -34h-84zM171 240h109l-55 299z" />
<glyph unicode="&#xc3;" horiz-adv-x="451" d="M27 0l128 667h141l135 -667h-106l-28 145h-142l-27 -145h-101zM132 725v69q27 15 58 15q23 0 44 -8q34 -12 49 -12q19 0 49 18v-70q-30 -17 -49 -17q-15 0 -49 12q-21 8 -44 8q-31 0 -58 -15zM171 240h109l-55 299z" />
<glyph unicode="&#xc4;" horiz-adv-x="451" d="M27 0l128 667h141l135 -667h-106l-28 145h-142l-27 -145h-101zM106 720v89h87v-89h-87zM171 240h109l-55 299zM259 720v89h87v-89h-87z" />
<glyph unicode="&#xc5;" horiz-adv-x="451" d="M27 0l128 667h141l135 -667h-106l-28 145h-142l-27 -145h-101zM158 777q0 29 21.5 49t52.5 20q30 0 51.5 -20.5t21.5 -48.5q0 -29 -21.5 -49.5t-51.5 -20.5q-31 0 -52.5 20.5t-21.5 49.5zM171 240h109l-55 299zM195 777q0 -14 11 -24.5t26 -10.5t25.5 10.5t10.5 24.5 q0 13 -11 23.5t-25 10.5q-15 0 -26 -10t-11 -24z" />
<glyph unicode="&#xc6;" horiz-adv-x="635" d="M4 0l254 667h357v-95h-199v-176h146v-95h-146v-206h199v-95h-302v145h-143l-55 -145h-111zM205 240h108v299z" />
<glyph unicode="&#xc7;" horiz-adv-x="444" d="M44 243v187q0 79 8 116.5t31 68.5q45 62 141 62q86 0 133.5 -54.5t47.5 -152.5v-20h-103v14q0 116 -79 116q-41 0 -60 -33q-16 -29 -16 -96v-222q0 -69 11 -99q17 -43 67 -43q80 0 80 130q0 10 -1 17h104v-23q0 -108 -46.5 -164.5t-136.5 -56.5q-104 0 -149 74 q-19 31 -25.5 68t-6.5 111zM183 -46h80v-68l-22 -56h-47l17 56h-28v68z" />
<glyph unicode="&#xc8;" horiz-adv-x="373" d="M51 0v667h302v-95h-199v-176h147v-95h-147v-206h199v-95h-302zM96 809h97l45 -89h-70z" />
<glyph unicode="&#xc9;" horiz-adv-x="373" d="M51 0v667h302v-95h-199v-176h147v-95h-147v-206h199v-95h-302zM166 720l46 89h96l-72 -89h-70z" />
<glyph unicode="&#xca;" horiz-adv-x="373" d="M51 0v667h302v-95h-199v-176h147v-95h-147v-206h199v-95h-302zM92 720l63 89h104l63 -89h-84l-31 34l-31 -34h-84z" />
<glyph unicode="&#xcb;" horiz-adv-x="373" d="M51 0v667h302v-95h-199v-176h147v-95h-147v-206h199v-95h-302zM84 720v89h87v-89h-87zM237 720v89h87v-89h-87z" />
<glyph unicode="&#xcc;" horiz-adv-x="205" d="M-2 809h97l45 -89h-70zM51 0v667h103v-667h-103z" />
<glyph unicode="&#xcd;" horiz-adv-x="205" d="M51 0v667h103v-667h-103zM71 720l46 89h96l-72 -89h-70z" />
<glyph unicode="&#xce;" horiz-adv-x="205" d="M-9 720l63 89h104l63 -89h-84l-31 34l-31 -34h-84zM51 0v667h103v-667h-103z" />
<glyph unicode="&#xcf;" horiz-adv-x="205" d="M-8 720v89h87v-89h-87zM50 0v667h103v-667h-103zM132 720v89h87v-89h-87z" />
<glyph unicode="&#xd0;" horiz-adv-x="454" d="M31 301v95h23v271h163q98 0 145.5 -51.5t47.5 -157.5v-250q0 -106 -47.5 -157t-145.5 -51h-163v301h-23zM157 95h50q55 0 77.5 32t22.5 110v193q0 78 -22.5 110t-77.5 32h-50v-176h77v-95h-77v-206z" />
<glyph unicode="&#xd1;" horiz-adv-x="471" d="M51 0v667h104l168 -415v415h98v-667h-92l-180 444v-444h-98zM146 725v69q27 15 58 15q23 0 44 -8q34 -12 49 -12q19 0 49 18v-70q-30 -17 -49 -17q-15 0 -49 12q-21 8 -44 8q-31 0 -58 -15z" />
<glyph unicode="&#xd2;" horiz-adv-x="452" d="M44 212v243q0 222 182 222t182 -222v-243q0 -105 -38 -158q-47 -64 -144 -64t-144 64q-38 53 -38 158zM121 809h97l45 -89h-70zM147 214q0 -65 13 -91q20 -36 66 -36t66 36q13 24 13 91v239q0 66 -13 91q-20 36 -66 36t-66 -36q-13 -26 -13 -91v-239z" />
<glyph unicode="&#xd3;" horiz-adv-x="452" d="M44 212v243q0 222 182 222t182 -222v-243q0 -105 -38 -158q-47 -64 -144 -64t-144 64q-38 53 -38 158zM147 214q0 -65 13 -91q20 -36 66 -36t66 36q13 24 13 91v239q0 66 -13 91q-20 36 -66 36t-66 -36q-13 -26 -13 -91v-239zM191 720l46 89h96l-72 -89h-70z" />
<glyph unicode="&#xd4;" horiz-adv-x="452" d="M44 212v243q0 222 182 222t182 -222v-243q0 -105 -38 -158q-47 -64 -144 -64t-144 64q-38 53 -38 158zM114 720l63 89h104l63 -89h-84l-31 34l-31 -34h-84zM147 214q0 -65 13 -91q20 -36 66 -36t66 36q13 24 13 91v239q0 66 -13 91q-20 36 -66 36t-66 -36 q-13 -26 -13 -91v-239z" />
<glyph unicode="&#xd5;" horiz-adv-x="452" d="M44 212v243q0 222 182 222t182 -222v-243q0 -105 -38 -158q-47 -64 -144 -64t-144 64q-38 53 -38 158zM136 725v69q27 15 58 15q23 0 44 -8q34 -12 49 -12q19 0 49 18v-70q-30 -17 -49 -17q-15 0 -49 12q-21 8 -44 8q-31 0 -58 -15zM147 214q0 -65 13 -91q20 -36 66 -36 t66 36q13 24 13 91v239q0 66 -13 91q-20 36 -66 36t-66 -36q-13 -26 -13 -91v-239z" />
<glyph unicode="&#xd6;" horiz-adv-x="452" d="M44 212v243q0 222 182 222t182 -222v-243q0 -105 -38 -158q-47 -64 -144 -64t-144 64q-38 53 -38 158zM109 720v89h87v-89h-87zM147 214q0 -65 13 -91q20 -36 66 -36t66 36q13 24 13 91v239q0 66 -13 91q-20 36 -66 36t-66 -36q-13 -26 -13 -91v-239zM262 720v89h87v-89 h-87z" />
<glyph unicode="&#xd7;" d="M58 251l90 90l-87 86l58 58l86 -87l90 90l56 -56l-90 -90l89 -88l-58 -58l-88 88l-90 -89z" />
<glyph unicode="&#xd8;" horiz-adv-x="452" d="M44 212v243q0 222 182 222q49 0 88 -18l10 29h53l-20 -59q28 -30 39.5 -69.5t11.5 -104.5v-243q0 -105 -38 -158q-47 -64 -143 -64q-47 0 -89 18l-10 -30h-53l21 60q-29 31 -40.5 70t-11.5 104zM147 185l132 376q-22 20 -54 20q-46 0 -65 -37q-13 -26 -13 -91v-268z M173 107q20 -20 53 -20q46 0 66 36q13 25 13 91v267z" />
<glyph unicode="&#xd9;" horiz-adv-x="454" d="M51 215v452h103v-469q0 -58 17.5 -84.5t56.5 -26.5t56 26t17 85v469h103v-452q0 -113 -38 -165q-46 -60 -139 -60t-138 60q-38 52 -38 165zM123 809h97l45 -89h-70z" />
<glyph unicode="&#xda;" horiz-adv-x="454" d="M51 215v452h103v-469q0 -58 17.5 -84.5t56.5 -26.5t56 26t17 85v469h103v-452q0 -113 -38 -165q-46 -60 -139 -60t-138 60q-38 52 -38 165zM199 720l46 89h96l-72 -89h-70z" />
<glyph unicode="&#xdb;" horiz-adv-x="454" d="M51 215v452h103v-469q0 -58 17.5 -84.5t56.5 -26.5t56 26t17 85v469h103v-452q0 -113 -38 -165q-46 -60 -139 -60t-138 60q-38 52 -38 165zM119 720l63 89h104l63 -89h-84l-31 34l-31 -34h-84z" />
<glyph unicode="&#xdc;" horiz-adv-x="454" d="M51 215v452h103v-469q0 -58 17.5 -84.5t56.5 -26.5t56 26t17 85v469h103v-452q0 -113 -38 -165q-46 -60 -139 -60t-138 60q-38 52 -38 165zM111 720v89h87v-89h-87zM264 720v89h87v-89h-87z" />
<glyph unicode="&#xdd;" horiz-adv-x="440" d="M17 667h114l89 -282l92 282h112l-154 -407v-260h-103v260zM193 720l46 89h96l-72 -89h-70z" />
<glyph unicode="&#xde;" horiz-adv-x="435" d="M51 0v667h103v-104h68q96 0 140 -43q53 -50 53 -155q0 -101 -46.5 -149.5t-146.5 -48.5h-68v-167h-103zM154 262h45q62 0 85.5 22t23.5 81t-23.5 81t-85.5 22h-45v-206z" />
<glyph unicode="&#xdf;" horiz-adv-x="386" d="M43 0v491q0 94 34 136q38 47 105 47q58 0 94.5 -36t36.5 -94t-48 -90q48 -17 64 -58t16 -146q0 -155 -32 -202q-32 -50 -100 -50q-6 0 -28 2v91q5 -1 12 -1q30 0 40 31.5t10 124.5q0 69 -6.5 101.5t-23.5 45.5t-52 14v90q55 0 55 48q0 20 -11 32t-29 12q-44 0 -44 -76 v-513h-93z" />
<glyph unicode="&#xe0;" horiz-adv-x="396" d="M37 125q0 47 19 78.5t62 58.5q30 19 132 63v26q0 38 -11.5 54.5t-37.5 16.5t-39 -16.5t-16 -54.5h-98q6 74 48.5 113.5t117.5 39.5q70 0 102 -38q16 -18 21.5 -40.5t5.5 -69.5v-221q0 -90 11 -135h-96q-8 22 -8 58q-34 -37 -58 -51t-54 -14q-47 0 -74 35t-27 97zM97 667 h97l45 -89h-70zM135 131q0 -25 13.5 -40.5t33.5 -15.5q40 0 68 45v136q-62 -33 -88.5 -62t-26.5 -63z" />
<glyph unicode="&#xe1;" horiz-adv-x="396" d="M37 125q0 47 19 78.5t62 58.5q30 19 132 63v26q0 38 -11.5 54.5t-37.5 16.5t-39 -16.5t-16 -54.5h-98q6 74 48.5 113.5t117.5 39.5q70 0 102 -38q16 -18 21.5 -40.5t5.5 -69.5v-221q0 -90 11 -135h-96q-8 22 -8 58q-34 -37 -58 -51t-54 -14q-47 0 -74 35t-27 97zM135 131 q0 -25 13.5 -40.5t33.5 -15.5q40 0 68 45v136q-62 -33 -88.5 -62t-26.5 -63zM180 578l46 89h96l-72 -89h-70z" />
<glyph unicode="&#xe2;" horiz-adv-x="396" d="M37 125q0 47 19 78.5t62 58.5q30 19 132 63v26q0 38 -11.5 54.5t-37.5 16.5t-39 -16.5t-16 -54.5h-98q6 74 48.5 113.5t117.5 39.5q70 0 102 -38q16 -18 21.5 -40.5t5.5 -69.5v-221q0 -90 11 -135h-96q-8 22 -8 58q-34 -37 -58 -51t-54 -14q-47 0 -74 35t-27 97zM100 578 l63 89h104l63 -89h-84l-31 34l-31 -34h-84zM135 131q0 -25 13.5 -40.5t33.5 -15.5q40 0 68 45v136q-62 -33 -88.5 -62t-26.5 -63z" />
<glyph unicode="&#xe3;" horiz-adv-x="396" d="M37 125q0 47 19 78.5t62 58.5q30 19 132 63v26q0 38 -11.5 54.5t-37.5 16.5t-39 -16.5t-16 -54.5h-98q6 74 48.5 113.5t117.5 39.5q70 0 102 -38q16 -18 21.5 -40.5t5.5 -69.5v-221q0 -90 11 -135h-96q-8 22 -8 58q-34 -37 -58 -51t-54 -14q-47 0 -74 35t-27 97zM111 583 v69q27 15 58 15q20 0 44 -8q31 -11 49 -11q19 0 49 17v-69q-30 -17 -49 -17q-17 0 -49 11q-24 8 -44 8q-31 0 -58 -15zM135 131q0 -25 13.5 -40.5t33.5 -15.5q40 0 68 45v136q-62 -33 -88.5 -62t-26.5 -63z" />
<glyph unicode="&#xe4;" horiz-adv-x="396" d="M37 125q0 47 19 78.5t62 58.5q30 19 132 63v26q0 38 -11.5 54.5t-37.5 16.5t-39 -16.5t-16 -54.5h-98q6 74 48.5 113.5t117.5 39.5q70 0 102 -38q16 -18 21.5 -40.5t5.5 -69.5v-221q0 -90 11 -135h-96q-8 22 -8 58q-34 -37 -58 -51t-54 -14q-47 0 -74 35t-27 97zM93 578 v89h87v-89h-87zM135 131q0 -25 13.5 -40.5t33.5 -15.5q40 0 68 45v136q-62 -33 -88.5 -62t-26.5 -63zM236 578v89h87v-89h-87z" />
<glyph unicode="&#xe5;" horiz-adv-x="396" d="M37 125q0 47 19 78.5t62 58.5q30 19 132 63v26q0 38 -11.5 54.5t-37.5 16.5t-39 -16.5t-16 -54.5h-98q6 74 48.5 113.5t117.5 39.5q70 0 102 -38q16 -18 21.5 -40.5t5.5 -69.5v-221q0 -90 11 -135h-96q-8 22 -8 58q-34 -37 -58 -51t-54 -14q-47 0 -74 35t-27 97zM135 131 q0 -25 13.5 -40.5t33.5 -15.5q40 0 68 45v136q-62 -33 -88.5 -62t-26.5 -63zM139 622q0 29 21.5 49.5t52.5 20.5q30 0 51.5 -20.5t21.5 -48.5q0 -29 -21.5 -50t-51.5 -21q-31 0 -52.5 20.5t-21.5 49.5zM176 622q0 -14 11 -24.5t26 -10.5t25.5 10.5t10.5 24.5t-11 24.5 t-25 10.5q-15 0 -26 -10.5t-11 -24.5z" />
<glyph unicode="&#xe6;" horiz-adv-x="599" d="M37 126q0 46 19 77.5t62 59.5q30 18 132 62v26q0 38 -11.5 54.5t-37.5 16.5t-39 -16.5t-16 -54.5h-98q6 74 48.5 113.5t116.5 39.5q58 0 91 -26q40 26 99 26q77 0 117 -45q21 -24 29.5 -55.5t8.5 -88.5v-82h-215v-44q0 -64 12 -87q14 -27 51 -27q44 0 56 42q4 15 4 55h93 q-1 -83 -19 -114q-37 -65 -135 -65q-90 0 -129 57q-65 -57 -127 -57q-53 0 -82.5 35t-29.5 98zM135 131q0 -25 13.5 -40.5t33.5 -15.5q40 0 68 45v136q-62 -33 -88.5 -62t-26.5 -63zM343 315h122v27q0 44 -14.5 63.5t-46.5 19.5t-46.5 -19.5t-14.5 -63.5v-27z" />
<glyph unicode="&#xe7;" horiz-adv-x="377" d="M40 176v144q0 93 31 135q38 52 125 52q78 0 118 -45q35 -38 35 -119v-18h-93v13q0 84 -60 84q-37 0 -51 -27q-12 -23 -12 -87v-120q0 -63 12 -86q14 -27 51 -27q60 0 60 87v14h93v-19q0 -83 -35 -121q-41 -46 -118 -46q-87 0 -125 52q-31 42 -31 134zM158 -46h80v-68 l-22 -56h-47l17 56h-28v68z" />
<glyph unicode="&#xe8;" horiz-adv-x="389" d="M40 177v148q0 60 8.5 89.5t31.5 51.5q41 41 113 41q77 0 117 -46q21 -24 29.5 -56.5t8.5 -89.5v-82h-215v-44q0 -64 12 -87q14 -27 51 -27q44 0 56 42q4 15 4 55h93q-1 -85 -19 -115q-39 -67 -134 -67q-87 0 -125 52q-31 44 -31 135zM90 667h97l45 -89h-70zM133 315h122 v27q0 44 -14.5 63.5t-46.5 19.5t-46.5 -19.5t-14.5 -63.5v-27z" />
<glyph unicode="&#xe9;" horiz-adv-x="389" d="M40 177v148q0 60 8.5 89.5t31.5 51.5q41 41 113 41q77 0 117 -46q21 -24 29.5 -56.5t8.5 -89.5v-82h-215v-44q0 -64 12 -87q14 -27 51 -27q44 0 56 42q4 15 4 55h93q-1 -85 -19 -115q-39 -67 -134 -67q-87 0 -125 52q-31 44 -31 135zM133 315h122v27q0 44 -14.5 63.5 t-46.5 19.5t-46.5 -19.5t-14.5 -63.5v-27zM164 578l46 89h96l-72 -89h-70z" />
<glyph unicode="&#xea;" horiz-adv-x="389" d="M40 177v148q0 60 8.5 89.5t31.5 51.5q41 41 113 41q77 0 117 -46q21 -24 29.5 -56.5t8.5 -89.5v-82h-215v-44q0 -64 12 -87q14 -27 51 -27q44 0 56 42q4 15 4 55h93q-1 -85 -19 -115q-39 -67 -134 -67q-87 0 -125 52q-31 44 -31 135zM83 578l63 89h104l63 -89h-84l-31 34 l-31 -34h-84zM133 315h122v27q0 44 -14.5 63.5t-46.5 19.5t-46.5 -19.5t-14.5 -63.5v-27z" />
<glyph unicode="&#xeb;" horiz-adv-x="389" d="M40 177v148q0 60 8.5 89.5t31.5 51.5q41 41 113 41q77 0 117 -46q21 -24 29.5 -56.5t8.5 -89.5v-82h-215v-44q0 -64 12 -87q14 -27 51 -27q44 0 56 42q4 15 4 55h93q-1 -85 -19 -115q-39 -67 -134 -67q-87 0 -125 52q-31 44 -31 135zM78 578v89h87v-89h-87zM133 315h122 v27q0 44 -14.5 63.5t-46.5 19.5t-46.5 -19.5t-14.5 -63.5v-27zM231 578v89h87v-89h-87z" />
<glyph unicode="&#xec;" horiz-adv-x="180" d="M-15 667h97l45 -89h-70zM43 0v497h93v-497h-93z" />
<glyph unicode="&#xed;" horiz-adv-x="180" d="M43 0v497h93v-497h-93zM62 578l46 89h96l-72 -89h-70z" />
<glyph unicode="&#xee;" horiz-adv-x="180" d="M-22 578l63 89h104l63 -89h-84l-31 34l-31 -34h-84zM43 0v497h93v-497h-93z" />
<glyph unicode="&#xef;" horiz-adv-x="180" d="M-20 578v89h87v-89h-87zM43 0v497h93v-497h-93zM120 578v89h87v-89h-87z" />
<glyph unicode="&#xf0;" horiz-adv-x="385" d="M40 172v136q0 97 23 142q25 50 87 50q49 0 102 -41q-11 58 -45 112l-48 -42l-29 32l49 43q-6 7 -10.5 11.5t-9.5 9t-9 8.5l46 48q27 -19 37 -28l53 48l29 -33l-51 -46q81 -93 81 -237v-213q0 -59 -8.5 -89t-30.5 -52q-41 -41 -113 -41q-73 0 -114 41q-22 22 -30.5 52.5 t-8.5 88.5zM133 166q0 -91 59 -91q31 0 45.5 22t14.5 69v165q0 91 -59 91q-31 0 -45.5 -22t-14.5 -69v-165z" />
<glyph unicode="&#xf1;" horiz-adv-x="385" d="M43 0v497h93v-64q61 71 124 71q81 0 81 -116v-388h-93v364q0 33 -8 45.5t-28 12.5q-40 0 -76 -50v-372h-93zM102 583v69q27 15 58 15q20 0 44 -8q31 -11 49 -11q19 0 49 17v-69q-30 -17 -49 -17q-17 0 -49 11q-24 8 -44 8q-31 0 -58 -15z" />
<glyph unicode="&#xf2;" horiz-adv-x="385" d="M40 172v153q0 59 8.5 89.5t30.5 52.5q40 40 114 40q71 0 113 -40q22 -22 30.5 -52.5t8.5 -89.5v-153q0 -59 -8.5 -89t-30.5 -52q-41 -41 -113 -41q-73 0 -114 41q-22 22 -30.5 52.5t-8.5 88.5zM88 667h97l45 -89h-70zM133 166q0 -91 59 -91q31 0 45.5 22t14.5 69v165 q0 91 -59 91q-31 0 -45.5 -22t-14.5 -69v-165z" />
<glyph unicode="&#xf3;" horiz-adv-x="385" d="M40 172v153q0 59 8.5 89.5t30.5 52.5q40 40 114 40q71 0 113 -40q22 -22 30.5 -52.5t8.5 -89.5v-153q0 -59 -8.5 -89t-30.5 -52q-41 -41 -113 -41q-73 0 -114 41q-22 22 -30.5 52.5t-8.5 88.5zM133 166q0 -91 59 -91q31 0 45.5 22t14.5 69v165q0 91 -59 91 q-31 0 -45.5 -22t-14.5 -69v-165zM161 578l46 89h96l-72 -89h-70z" />
<glyph unicode="&#xf4;" horiz-adv-x="385" d="M40 172v153q0 59 8.5 89.5t30.5 52.5q40 40 114 40q71 0 113 -40q22 -22 30.5 -52.5t8.5 -89.5v-153q0 -59 -8.5 -89t-30.5 -52q-41 -41 -113 -41q-73 0 -114 41q-22 22 -30.5 52.5t-8.5 88.5zM81 578l63 89h104l63 -89h-84l-31 34l-31 -34h-84zM133 166q0 -91 59 -91 q31 0 45.5 22t14.5 69v165q0 91 -59 91q-31 0 -45.5 -22t-14.5 -69v-165z" />
<glyph unicode="&#xf5;" horiz-adv-x="385" d="M40 172v153q0 59 8.5 89.5t30.5 52.5q40 40 114 40q71 0 113 -40q22 -22 30.5 -52.5t8.5 -89.5v-153q0 -59 -8.5 -89t-30.5 -52q-41 -41 -113 -41q-73 0 -114 41q-22 22 -30.5 52.5t-8.5 88.5zM102 583v69q27 15 58 15q20 0 44 -8q31 -11 49 -11q19 0 49 17v-69 q-30 -17 -49 -17q-17 0 -49 11q-24 8 -44 8q-31 0 -58 -15zM133 166q0 -91 59 -91q31 0 45.5 22t14.5 69v165q0 91 -59 91q-31 0 -45.5 -22t-14.5 -69v-165z" />
<glyph unicode="&#xf6;" horiz-adv-x="385" d="M40 172v153q0 59 8.5 89.5t30.5 52.5q40 40 114 40q71 0 113 -40q22 -22 30.5 -52.5t8.5 -89.5v-153q0 -59 -8.5 -89t-30.5 -52q-41 -41 -113 -41q-73 0 -114 41q-22 22 -30.5 52.5t-8.5 88.5zM76 578v89h87v-89h-87zM133 166q0 -91 59 -91q31 0 45.5 22t14.5 69v165 q0 91 -59 91q-31 0 -45.5 -22t-14.5 -69v-165zM229 578v89h87v-89h-87z" />
<glyph unicode="&#xf7;" d="M38 302v79h335v-79h-335zM164 157v91h83v-91h-83zM164 432v91h83v-91h-83z" />
<glyph unicode="&#xf8;" horiz-adv-x="385" d="M40 172v153q0 59 8.5 89.5t30.5 52.5q40 40 115 40q35 0 58 -9l13 39h46l-19 -58q31 -25 42 -56.5t11 -97.5v-153q0 -59 -8.5 -89.5t-30.5 -52.5q-42 -40 -113 -40q-31 0 -62 9l-13 -39h-47l20 60q-30 25 -40.5 56t-10.5 96zM133 146l90 268q-15 8 -30 8q-32 0 -46 -21.5 t-14 -69.5v-185zM160 85q15 -10 33 -10q59 0 59 91v193z" />
<glyph unicode="&#xf9;" horiz-adv-x="385" d="M43 109v388h93v-364q0 -33 8 -45.5t28 -12.5q40 0 76 50v372h93v-497h-93v64q-61 -71 -124 -71q-81 0 -81 116zM87 667h97l45 -89h-70z" />
<glyph unicode="&#xfa;" horiz-adv-x="385" d="M43 109v388h93v-364q0 -33 8 -45.5t28 -12.5q40 0 76 50v372h93v-497h-93v64q-61 -71 -124 -71q-81 0 -81 116zM164 578l46 89h96l-72 -89h-70z" />
<glyph unicode="&#xfb;" horiz-adv-x="385" d="M43 109v388h93v-364q0 -33 8 -45.5t28 -12.5q40 0 76 50v372h93v-497h-93v64q-61 -71 -124 -71q-81 0 -81 116zM80 578l63 89h104l63 -89h-84l-31 34l-31 -34h-84z" />
<glyph unicode="&#xfc;" horiz-adv-x="385" d="M43 109v388h93v-364q0 -33 8 -45.5t28 -12.5q40 0 76 50v372h93v-497h-93v64q-61 -71 -124 -71q-81 0 -81 116zM75 578v89h87v-89h-87zM228 578v89h87v-89h-87z" />
<glyph unicode="&#xfd;" horiz-adv-x="354" d="M10 497h98l73 -339l67 339h96l-108 -476q-28 -123 -67.5 -160.5t-143.5 -37.5v96q6 -1 15 -1q39 0 62.5 22.5t23.5 59.5q0 15 -7 43zM149 578l46 89h96l-72 -89h-70z" />
<glyph unicode="&#xfe;" horiz-adv-x="387" d="M43 -170v837h93v-219q60 56 110 56q57 0 80 -51q20 -42 20 -145v-119q0 -103 -20 -145q-23 -51 -80 -51q-51 0 -110 56v-219h-93zM136 100q37 -25 65 -25q32 0 43 26q9 19 9 82v131q0 63 -9 82q-11 26 -43 26q-30 0 -65 -25v-297z" />
<glyph unicode="&#xff;" horiz-adv-x="354" d="M10 497h98l73 -339l67 339h96l-108 -476q-28 -123 -67.5 -160.5t-143.5 -37.5v96q6 -1 15 -1q39 0 62.5 22.5t23.5 59.5q0 15 -7 43zM64 578v89h87v-89h-87zM217 578v89h87v-89h-87z" />
<glyph unicode="&#x152;" horiz-adv-x="619" d="M44 208v250q0 106 47.5 157.5t145.5 51.5h362v-95h-200v-176h147v-95h-147v-206h200v-95h-362q-98 0 -145.5 51t-47.5 157zM147 237q0 -78 22 -110t77 -32h50v477h-50q-55 0 -77 -32t-22 -110v-193z" />
<glyph unicode="&#x153;" horiz-adv-x="601" d="M40 172v153q0 59 8.5 89.5t30.5 52.5q40 40 113 40q67 0 107 -34q41 34 106 34q76 0 117 -46q21 -23 29.5 -55.5t8.5 -90.5v-82h-215v-33q0 -66 6 -84q12 -41 57 -41q43 0 55 42q4 15 4 55h94q-1 -85 -19 -115q-39 -67 -134 -67q-68 0 -109 34q-44 -34 -106 -34 q-73 0 -114 41q-22 22 -30.5 52.5t-8.5 88.5zM133 166q0 -91 59 -91q31 0 45.5 22t14.5 69v165q0 91 -59 91q-31 0 -45.5 -22t-14.5 -69v-165zM345 315h121v27q0 44 -14.5 63.5t-46.5 19.5t-46 -19.5t-14 -63.5v-27z" />
<glyph unicode="&#x178;" horiz-adv-x="440" d="M17 667h114l89 -282l92 282h112l-154 -407v-260h-103v260zM107 720v89h87v-89h-87zM260 720v89h87v-89h-87z" />
<glyph unicode="&#x2c6;" horiz-adv-x="500" d="M135 578l63 89h104l63 -89h-84l-31 34l-31 -34h-84z" />
<glyph unicode="&#x2dc;" horiz-adv-x="500" d="M150 583v69q27 15 58 15q20 0 44 -8q31 -11 49 -11q19 0 49 17v-69q-30 -17 -49 -17q-17 0 -49 11q-24 8 -44 8q-31 0 -58 -15z" />
<glyph unicode="&#x2000;" horiz-adv-x="423" />
<glyph unicode="&#x2001;" horiz-adv-x="846" />
<glyph unicode="&#x2002;" horiz-adv-x="423" />
<glyph unicode="&#x2003;" horiz-adv-x="846" />
<glyph unicode="&#x2004;" horiz-adv-x="282" />
<glyph unicode="&#x2005;" horiz-adv-x="211" />
<glyph unicode="&#x2006;" horiz-adv-x="141" />
<glyph unicode="&#x2007;" horiz-adv-x="141" />
<glyph unicode="&#x2008;" horiz-adv-x="105" />
<glyph unicode="&#x2009;" horiz-adv-x="169" />
<glyph unicode="&#x200a;" horiz-adv-x="47" />
<glyph unicode="&#x2010;" horiz-adv-x="143" d="M0 212v83h143v-83h-143z" />
<glyph unicode="&#x2011;" horiz-adv-x="143" d="M0 212v83h143v-83h-143z" />
<glyph unicode="&#x2012;" horiz-adv-x="143" d="M0 212v83h143v-83h-143z" />
<glyph unicode="&#x2013;" d="M38 212v83h335v-83h-335z" />
<glyph unicode="&#x2014;" horiz-adv-x="503" d="M0 212v83h503v-83h-503z" />
<glyph unicode="&#x2018;" horiz-adv-x="177" d="M40 422v107l59 138h38l-44 -138h44v-107h-97z" />
<glyph unicode="&#x2019;" horiz-adv-x="177" d="M40 422l44 138h-44v107h97v-107l-59 -138h-38z" />
<glyph unicode="&#x201a;" horiz-adv-x="177" d="M40 0v107h97v-107l-59 -138h-38l44 138h-44z" />
<glyph unicode="&#x201c;" horiz-adv-x="323" d="M40 422v107l59 138h38l-44 -138h44v-107h-97zM186 422v107l59 138h38l-44 -138h44v-107h-97z" />
<glyph unicode="&#x201d;" horiz-adv-x="323" d="M40 422l44 138h-44v107h97v-107l-59 -138h-38zM186 422l44 138h-44v107h97v-107l-59 -138h-38z" />
<glyph unicode="&#x201e;" horiz-adv-x="323" d="M40 0v107h97v-107l-59 -138h-38l44 138h-44zM186 0v107h97v-107l-59 -138h-38l44 138h-44z" />
<glyph unicode="&#x2022;" horiz-adv-x="667" d="M196 339q0 58 41 98.5t100 40.5q55 0 95.5 -41t40.5 -97q0 -58 -40.5 -98.5t-97.5 -40.5t-98 40.5t-41 97.5z" />
<glyph unicode="&#x2026;" horiz-adv-x="520" d="M38 0v107h97v-107h-97zM211 0v107h97v-107h-97zM384 0v107h97v-107h-97z" />
<glyph unicode="&#x202f;" horiz-adv-x="169" />
<glyph unicode="&#x2039;" horiz-adv-x="169" d="M33 178v144l103 85v-120l-38 -37l38 -37v-120z" />
<glyph unicode="&#x203a;" horiz-adv-x="169" d="M33 93v120l38 37l-38 37v120l103 -85v-144z" />
<glyph unicode="&#x205f;" horiz-adv-x="211" />
<glyph unicode="&#x20ac;" horiz-adv-x="509" d="M38 301l26 62h43v67q0 79 8 116.5t31 68.5q45 62 141 62q86 0 133.5 -54.5t47.5 -152.5v-20h-103v14q0 116 -79 116q-41 0 -60 -33q-16 -29 -16 -96v-88h211l-26 -62h-185v-72q0 -69 11 -99q17 -43 67 -43q80 0 80 130q0 10 -1 17h104v-23q0 -108 -46.5 -164.5 t-136.5 -56.5q-104 0 -149 74q-19 31 -25.5 68t-6.5 111v58h-69z" />
<glyph unicode="&#x2122;" horiz-adv-x="583" d="M20 607v60h217v-60h-75v-320h-67v320h-75zM255 287v380h94l50 -217l51 217h93v-380h-64v253l-59 -253h-42l-59 253v-253h-64z" />
<glyph unicode="&#xe000;" horiz-adv-x="495" d="M0 0v495h495v-495h-495z" />
</font>
</defs>
</svg>
