<?xml version="1.0" encoding="UTF-8" standalone="no"?>
<svg viewBox="0 0 217 106" version="1.1" xmlns="http://www.w3.org/2000/svg" xmlns:xlink="http://www.w3.org/1999/xlink" xmlns:sketch="http://www.bohemiancoding.com/sketch/ns">
    <title>vimcasts-logo</title>
    <description>Created with Sketch (http://www.bohemiancoding.com/sketch)</description>
    <defs></defs>
    <g id="Page-1" stroke="none" stroke-width="1" fill="none" fill-rule="evenodd" sketch:type="MSPage">
        <g id="vimcasts-logo" sketch:type="MSLayerGroup" transform="translate(0.000000, 1.000000)">
            <g id="block-fills" fill="#050F47" sketch:type="MSShapeGroup">
                <path d="M0,45.428 L108.46,45.428 L108.46,-0.393 L0,-0.393 L0,45.428 Z" id="Fill-1"></path>
                <path d="M0,102.268 L149.059,102.268 L149.059,55.868 L0,55.868 L0,102.268 Z" id="Fill-4"></path>
            </g>
            <g id="outline-text" transform="translate(37.000000, 6.000000)" sketch:type="MSShapeGroup">
                <path d="M10.01654,23.0880248 L9.92258,23.0880248 L5.69438,-0.448955208 L-0.03718,-0.448955208 L7.0568,33.4706048 L12.88232,33.4706048 L19.9763,-0.448955208 L14.24474,-0.448955208 L10.01654,23.0880248 Z M29.8421,33.4706048 L29.8421,-0.448955208 L24.01658,-0.448955208 L24.01658,33.4706048 L29.8421,33.4706048 Z M51.96968,-0.448955208 L47.83544,19.3766048 L47.74148,19.3766048 L43.60724,-0.448955208 L35.9495,-0.448955208 L35.9495,33.4706048 L41.02334,33.4706048 L41.02334,6.97388479 L41.1173,6.97388479 L46.37906,33.4706048 L49.19786,33.4706048 L54.45962,6.97388479 L54.55358,6.97388479 L54.55358,33.4706048 L59.62742,33.4706048 L59.62742,-0.448955208 L51.96968,-0.448955208 Z" id="VIM" fill="#FFFFFF"></path>
                <path d="M18.75482,67.7190248 L18.75482,65.2290848 C18.75482,60.1552448 15.93602,55.9270448 10.1105,55.9270448 C4.0031,55.9270448 1.1843,59.8263848 1.1843,64.6183448 L1.1843,82.0949048 C1.1843,86.8868648 4.0031,90.7862048 10.1105,90.7862048 C15.93602,90.7862048 18.75482,86.8868648 18.75482,82.0949048 L18.75482,78.1955648 L12.9293,78.1955648 L12.9293,82.2828248 C12.9293,84.4908848 12.2246,85.7123648 10.1105,85.7123648 C7.7615,85.7123648 7.00982,84.4908848 7.00982,81.9539648 L7.00982,64.7592848 C7.00982,62.2223648 7.7615,61.0008848 10.1105,61.0008848 C11.61386,61.0008848 12.9293,62.2223648 12.9293,65.0881448 L12.9293,67.7190248 L18.75482,67.7190248 Z M29.09042,82.7996048 L35.4797,82.7996048 L36.51326,90.3164048 L42.15086,90.3164048 L35.90252,56.3968448 L28.6676,56.3968448 L22.41926,90.3164048 L28.05686,90.3164048 L29.09042,82.7996048 Z M32.23808,63.1619648 L32.33204,63.1619648 L34.63406,77.7257648 L29.93606,77.7257648 L32.23808,63.1619648 Z M61.69454,64.1485448 C61.17776,59.3565848 58.35896,55.9270448 53.61398,55.9270448 C47.88242,55.9270448 44.59382,58.9807448 44.59382,64.3834448 C44.59382,74.1083048 56.43278,75.8935448 56.43278,82.6116848 C56.43278,84.6318248 55.07036,85.7123648 53.05022,85.7123648 C51.17102,85.7123648 49.8086,84.0210848 49.5737,80.5915448 L44.03006,81.3902048 C44.26496,86.4640448 47.36564,90.7862048 52.76834,90.7862048 C58.21802,90.7862048 61.97642,87.6855248 61.97642,82.0949048 C61.97642,72.8868248 50.13746,70.1150048 50.13746,64.3364648 C50.13746,62.2223648 51.17102,61.0008848 53.05022,61.0008848 C54.36566,61.0008848 55.916,61.8465248 56.1509,64.7592848 L61.69454,64.1485448 Z M69.7751,90.3164048 L75.60062,90.3164048 L75.60062,61.4706848 L81.23822,61.4706848 L81.23822,56.3968448 L64.1375,56.3968448 L64.1375,61.4706848 L69.7751,61.4706848 L69.7751,90.3164048 Z M100.82888,64.1485448 C100.3121,59.3565848 97.4933,55.9270448 92.74832,55.9270448 C87.01676,55.9270448 83.72816,58.9807448 83.72816,64.3834448 C83.72816,74.1083048 95.56712,75.8935448 95.56712,82.6116848 C95.56712,84.6318248 94.2047,85.7123648 92.18456,85.7123648 C90.30536,85.7123648 88.94294,84.0210848 88.70804,80.5915448 L83.1644,81.3902048 C83.3993,86.4640448 86.49998,90.7862048 91.90268,90.7862048 C97.35236,90.7862048 101.11076,87.6855248 101.11076,82.0949048 C101.11076,72.8868248 89.2718,70.1150048 89.2718,64.3364648 C89.2718,62.2223648 90.30536,61.0008848 92.18456,61.0008848 C93.5,61.0008848 95.05034,61.8465248 95.28524,64.7592848 L100.82888,64.1485448 Z" id="CASTS" fill="#FFFFFF"></path>
                <path d="M122.165084,90.4957072 L122.165084,85.0918736 L116.76125,85.0918736 L116.76125,90.4957072 L122.165084,90.4957072 Z M126.744604,81.7946192 C126.744604,87.1984528 128.851183,90.9536592 134.712969,90.9536592 C140.574754,90.9536592 142.681334,87.1984528 142.681334,81.7946192 L142.681334,74.5589776 C142.681334,69.155144 140.574754,65.3999376 134.712969,65.3999376 C128.851183,65.3999376 126.744604,69.155144 126.744604,74.5589776 L126.744604,81.7946192 Z M137.552271,82.7105232 C137.552271,85.5498256 136.544777,86.7405008 134.712969,86.7405008 C132.881161,86.7405008 131.873666,85.5498256 131.873666,82.7105232 L131.873666,73.6430736 C131.873666,70.8037712 132.881161,69.613096 134.712969,69.613096 C136.544777,69.613096 137.552271,70.8037712 137.552271,73.6430736 L137.552271,82.7105232 Z M152.481506,90.4957072 L152.481506,73.5514832 C152.481506,71.3533136 154.175929,70.2542288 155.916146,70.2542288 C157.427388,70.2542288 158.297497,70.529 159.213401,70.757976 L159.213401,65.3999376 L158.160111,65.3999376 C155.732966,65.3999376 153.580591,66.636408 152.344121,68.7429872 L152.25253,68.7429872 L152.25253,65.8578896 L147.352444,65.8578896 L147.352444,90.4957072 L152.481506,90.4957072 Z M179.63806,65.3999376 C177.485686,65.3999376 176.798758,66.0410704 175.424902,68.0560592 C173.82207,66.178456 171.944466,65.3999376 169.746297,65.3999376 C163.976102,65.3999376 161.777932,67.6896976 161.777932,74.4673872 C161.777932,80.2375824 162.510655,81.519848 165.075186,83.3058608 C163.70133,84.0843792 161.961113,85.5956208 161.961113,87.2900432 C161.961113,88.8928752 162.922812,89.8545744 164.296668,90.4041168 L164.296668,90.4957072 C162.510655,90.907864 160.953618,92.4191056 160.953618,94.342504 C160.953618,96.9070352 163.976102,98.2808912 169.105164,98.2808912 C175.699673,98.2808912 179.63806,96.632264 179.63806,92.4191056 C179.63806,83.7180176 166.449042,88.6638992 166.449042,85.3208496 C166.449042,84.725512 166.906994,84.3133552 167.456537,84.1759696 L169.105164,84.1759696 C174.325817,84.1759696 176.890348,81.7946192 176.890348,74.2842064 C176.890348,73.276712 176.707167,71.67388 176.340806,70.3916144 C177.073529,69.7962768 177.897842,69.613096 178.813746,69.613096 C179.088518,69.613096 179.363289,69.613096 179.63806,69.6588912 L179.63806,65.3999376 Z M170.707996,94.6172752 C167.273356,94.6172752 166.357452,94.0677328 166.357452,92.7854672 C166.357452,91.5032016 167.273356,90.9536592 170.707996,90.9536592 C174.142636,90.9536592 175.05854,91.5032016 175.05854,92.7854672 C175.05854,94.0677328 174.142636,94.6172752 170.707996,94.6172752 Z M169.196754,79.9628112 C167.548127,79.9628112 166.632223,78.9553168 166.632223,74.7879536 C166.632223,70.6205904 167.548127,69.613096 169.196754,69.613096 C171.211743,69.613096 171.761286,70.6205904 171.761286,74.7879536 C171.761286,78.9553168 171.211743,79.9628112 169.196754,79.9628112 Z" id=".org" fill="#050F47"></path>
            </g>
        </g>
    </g>
</svg>
